<?xml version="1.0" encoding="UTF-8"?>
<!-- Generator: Adobe Illustrator 14.0.0, SVG Export Plug-In . SVG Version: 6.00 Build 43363)  -->
<!DOCTYPE svg PUBLIC "-//W3C//DTD SVG 1.1//EN" "http://www.w3.org/Graphics/SVG/1.1/DTD/svg11.dtd">
<svg version="1.1" id="Layer_1" xmlns="http://www.w3.org/2000/svg" xmlns:xlink="http://www.w3.org/1999/xlink" x="0px" y="0px" width="100%" height="100%" viewBox="0 0 595.28 280.63" enable-background="new 0 0 595.28 280.63" preserveAspectRatio="xMidYMid meet" xml:space="preserve">
<g>
	<defs>
		<rect id="SVGID_1_" x="36" y="83.536" width="523.275" height="114.094"/>
	</defs>
	<clipPath id="SVGID_2_">
		<use xlink:href="#SVGID_1_" overflow="visible"/>
	</clipPath>
	<path clip-path="url(#SVGID_2_)" fill="#91278E" d="M531.717,145.053c0.273-2.789,1.121-4.947,2.543-6.479   c1.422-1.53,3.498-2.296,6.234-2.296c2.404,0,4.277,0.807,5.617,2.419c1.34,1.614,2.062,3.731,2.174,6.356H531.717z    M558.865,153.173c0.109-0.601,0.205-1.408,0.287-2.42c0.082-1.011,0.123-2.036,0.123-3.076c0-2.842-0.41-5.508-1.23-7.996   c-0.82-2.487-2.037-4.635-3.65-6.438c-1.611-1.804-3.566-3.227-5.863-4.265s-4.92-1.559-7.873-1.559   c-3.393,0-6.357,0.588-8.9,1.763c-2.543,1.178-4.674,2.776-6.396,4.799c-1.723,2.023-3.021,4.401-3.896,7.136   c-0.875,2.735-1.312,5.659-1.312,8.775c0,3.173,0.424,6.098,1.271,8.776c0.848,2.68,2.16,4.99,3.938,6.93   c1.775,1.942,4.072,3.459,6.889,4.553s6.193,1.641,10.129,1.641c5.359,0,10.172-0.82,14.436-2.461   c-0.055-1.749-0.301-3.389-0.738-4.921c-0.438-1.53-0.957-2.842-1.559-3.938c-1.75,0.656-3.596,1.163-5.535,1.519   c-1.941,0.355-3.842,0.533-5.699,0.533c-3.393,0-6.125-0.738-8.203-2.216c-2.078-1.476-3.227-3.854-3.445-7.135H558.865z    M492.102,156.453c0,5.25,1.314,9.036,3.938,11.36c2.625,2.324,6.426,3.485,11.4,3.485c2.68,0,5.277-0.301,7.791-0.901   c0.055-0.383,0.096-0.78,0.125-1.19c0.025-0.41,0.041-0.915,0.041-1.517c0-0.874-0.082-1.872-0.246-2.994   c-0.164-1.12-0.439-2.2-0.82-3.24c-0.604,0.111-1.299,0.234-2.092,0.37c-0.793,0.137-1.6,0.205-2.42,0.205   c-1.039,0-1.941-0.109-2.705-0.328c-0.768-0.218-1.41-0.628-1.93-1.231c-0.52-0.601-0.916-1.421-1.188-2.46   c-0.275-1.038-0.41-2.405-0.41-4.101v-16.65h9.924c0.164-0.874,0.273-1.667,0.328-2.379c0.053-0.71,0.082-1.448,0.082-2.214   c0-0.71-0.029-1.394-0.082-2.051c-0.055-0.656-0.164-1.395-0.328-2.214h-9.924v-12.385h-1.887l-15.338,19.603l0.41,1.64h5.33   V156.453z M469.303,143.904c-1.916-0.164-3.664-0.246-5.25-0.246c-2.188,0-4.375,0.233-6.561,0.698   c-2.188,0.465-4.17,1.229-5.947,2.296c-1.777,1.065-3.227,2.488-4.346,4.265c-1.121,1.778-1.682,3.979-1.682,6.604   c0,2.624,0.451,4.839,1.354,6.643c0.9,1.804,2.186,3.281,3.854,4.429c1.668,1.148,3.662,1.97,5.988,2.461   c2.324,0.492,4.879,0.738,7.668,0.738c3.445,0,6.533-0.274,9.27-0.82c2.732-0.546,5.057-1.119,6.971-1.723v-24.604   c0-6.016-1.6-10.39-4.797-13.123c-3.199-2.734-7.643-4.102-13.328-4.102c-2.08,0-4.322,0.192-6.727,0.574   c-2.406,0.383-4.812,0.984-7.219,1.804c0,1.751,0.191,3.254,0.574,4.511c0.383,1.26,0.957,2.599,1.723,4.02   c3.334-1.148,6.48-1.722,9.434-1.722c1.365,0,2.609,0.082,3.73,0.246c1.121,0.163,2.064,0.479,2.83,0.942   c0.766,0.465,1.367,1.107,1.805,1.928s0.656,1.887,0.656,3.198V143.904z M469.303,162.195c-0.602,0.109-1.312,0.232-2.133,0.369   s-1.641,0.205-2.461,0.205c-0.711,0-1.545-0.041-2.502-0.123s-1.859-0.301-2.705-0.656c-0.85-0.355-1.574-0.915-2.174-1.683   c-0.604-0.765-0.902-1.857-0.902-3.28c0-2.132,0.779-3.676,2.338-4.634c1.559-0.956,3.676-1.436,6.355-1.436   c0.602,0,1.285,0.041,2.051,0.123s1.477,0.178,2.133,0.287V162.195z M415.99,170.889c1.039,0.164,2.037,0.273,2.994,0.328   c0.955,0.055,1.898,0.082,2.828,0.082c0.932,0,1.889-0.027,2.871-0.082c0.984-0.055,1.971-0.164,2.953-0.328v-20.177   c0-2.953,0.342-5.249,1.025-6.89s1.545-2.87,2.584-3.69s2.133-1.325,3.281-1.518c1.148-0.191,2.186-0.287,3.115-0.287h1.354   c0.738,0,1.408,0.055,2.01,0.164c0.219-0.984,0.369-2.022,0.451-3.116s0.123-2.104,0.123-3.035c0-0.765-0.027-1.503-0.082-2.215   c-0.055-0.71-0.137-1.339-0.246-1.886c-0.328-0.109-0.848-0.191-1.559-0.246c-0.711-0.054-1.34-0.082-1.887-0.082   c-2.625,0-4.811,0.67-6.561,2.009c-1.75,1.341-3.227,2.858-4.428,4.552c-0.057-0.382-0.123-0.86-0.205-1.435   c-0.084-0.574-0.18-1.148-0.289-1.722c-0.109-0.575-0.232-1.12-0.369-1.642c-0.137-0.519-0.287-0.915-0.451-1.188   c-0.766-0.164-1.545-0.3-2.336-0.41c-0.795-0.109-1.6-0.164-2.42-0.164c-0.875,0-1.682,0.041-2.42,0.123s-1.518,0.205-2.338,0.369   V170.889z M394.42,121.595c1.094,0.057,2.078,0.082,2.953,0.082c0.93,0,1.928-0.025,2.994-0.082   c1.064-0.053,2.062-0.164,2.994-0.327c0.164-0.93,0.271-1.858,0.326-2.788s0.082-1.832,0.082-2.707c0-0.93-0.027-1.846-0.082-2.748   s-0.162-1.817-0.326-2.747c-0.932-0.164-1.943-0.287-3.035-0.369c-1.096-0.082-2.105-0.123-3.035-0.123   c-0.875,0-1.846,0.041-2.912,0.123s-2.064,0.205-2.994,0.369c-0.328,1.914-0.492,3.746-0.492,5.495   c0,1.805,0.164,3.637,0.492,5.495C392.314,121.431,393.326,121.542,394.42,121.595 M393.109,170.807   c1.967,0.328,3.854,0.492,5.658,0.492c1.857,0,3.773-0.164,5.74-0.492v-42.403h-16.895c-0.328,1.422-0.492,2.871-0.492,4.347   c0,0.711,0.041,1.463,0.123,2.255c0.082,0.794,0.205,1.546,0.369,2.256h5.496V170.807z M353.74,147.349   c0-1.365,0.135-2.65,0.41-3.854c0.273-1.202,0.711-2.255,1.312-3.157c0.6-0.903,1.379-1.612,2.338-2.133   c0.955-0.519,2.117-0.779,3.484-0.779c1.477,0,2.721,0.302,3.732,0.902c1.012,0.603,1.846,1.423,2.502,2.461   c0.656,1.039,1.119,2.283,1.395,3.732c0.271,1.448,0.41,3.021,0.41,4.716c0,4.429-0.902,7.737-2.707,9.924   c-1.805,2.188-4.402,3.281-7.791,3.281c-1.916,0-3.609-0.219-5.086-0.656V147.349z M342.094,190.245   c1.037,0.164,2.035,0.273,2.994,0.328c0.955,0.054,1.898,0.082,2.828,0.082s1.873-0.028,2.83-0.082   c0.957-0.055,1.955-0.164,2.994-0.328v-18.864c0.602,0.109,1.354,0.205,2.256,0.287c0.9,0.082,1.816,0.123,2.748,0.123   c3.607,0,6.834-0.533,9.678-1.6c2.842-1.066,5.248-2.583,7.217-4.553c1.969-1.968,3.473-4.358,4.512-7.176   c1.037-2.815,1.559-6,1.559-9.555c0-3.663-0.424-6.835-1.271-9.515c-0.85-2.679-2.037-4.907-3.568-6.685   c-1.531-1.776-3.322-3.103-5.371-3.978c-2.051-0.874-4.252-1.312-6.604-1.312c-1.531,0-2.926,0.205-4.184,0.615   s-2.391,0.943-3.404,1.599c-1.012,0.656-1.873,1.409-2.582,2.256c-0.711,0.849-1.312,1.709-1.805,2.583   c-0.055-0.382-0.123-0.86-0.205-1.435s-0.193-1.161-0.328-1.763c-0.137-0.602-0.273-1.161-0.41-1.683   c-0.137-0.519-0.287-0.915-0.451-1.188c-1.586-0.328-3.145-0.492-4.676-0.492c-0.93,0-1.762,0.028-2.502,0.082   c-0.736,0.055-1.488,0.164-2.254,0.328V190.245z"/>
	<path clip-path="url(#SVGID_2_)" d="M323.065,118.848c0.71,0.028,1.312,0.041,1.804,0.041c0.438,0,0.985-0.013,1.641-0.041   c0.656-0.026,1.203-0.067,1.641-0.123c0.055-0.491,0.096-1.093,0.123-1.805c0.027-0.71,0.041-1.312,0.041-1.804   c0-0.438-0.014-0.984-0.041-1.64c-0.027-0.657-0.068-1.202-0.123-1.642c-0.438-0.054-0.984-0.095-1.641-0.123   c-0.655-0.026-1.203-0.041-1.641-0.041c-0.492,0-1.094,0.015-1.804,0.041c-0.711,0.028-1.312,0.069-1.804,0.123   c-0.057,0.439-0.098,0.984-0.123,1.642c-0.029,0.655-0.041,1.202-0.041,1.64c0,0.492,0.012,1.094,0.041,1.804   c0.025,0.712,0.066,1.313,0.123,1.805C321.754,118.78,322.354,118.821,323.065,118.848 M323.967,170.807   c0.328,0.054,0.793,0.095,1.395,0.123c0.602,0.027,1.039,0.041,1.312,0.041c0.328,0,0.779-0.014,1.354-0.041   c0.574-0.028,1.025-0.069,1.354-0.123v-41.829h-10.662c-0.055,0.273-0.096,0.629-0.123,1.065c-0.028,0.439-0.041,0.876-0.041,1.313   s0.013,0.848,0.041,1.229c0.027,0.383,0.068,0.711,0.123,0.984h5.248V170.807z M295.508,161.046c0,3.773,0.97,6.494,2.911,8.161   c1.941,1.668,4.47,2.502,7.586,2.502c2.625,0,4.922-0.301,6.891-0.902c-0.164-1.641-0.439-3.171-0.82-4.593   c-1.423,0.492-3.09,0.738-5.004,0.738c-0.766,0-1.517-0.068-2.255-0.205c-0.737-0.136-1.396-0.423-1.969-0.862   c-0.574-0.437-1.039-1.052-1.394-1.845c-0.356-0.792-0.533-1.872-0.533-3.24V133.57h11.317c0.054-0.273,0.095-0.628,0.123-1.066   c0.027-0.437,0.041-0.874,0.041-1.312s-0.014-0.848-0.041-1.231c-0.028-0.382-0.069-0.71-0.123-0.983h-11.317V116.1h-0.328   l-5.085,5.004v7.874h-7.136c-0.055,0.273-0.096,0.602-0.123,0.983c-0.028,0.384-0.041,0.794-0.041,1.231s0.013,0.875,0.041,1.312   c0.027,0.438,0.068,0.793,0.123,1.066h7.136V161.046z M264.916,170.807c0.329,0.054,0.792,0.095,1.395,0.123   c0.601,0.027,1.038,0.041,1.312,0.041c0.328,0,0.779-0.014,1.353-0.041c0.574-0.028,1.026-0.069,1.354-0.123v-21.488   c0-5.467,1.12-9.377,3.362-11.729c2.242-2.35,5.221-3.526,8.94-3.526h0.78c0.246,0,0.587,0.027,1.025,0.082   c0.164-0.82,0.246-1.667,0.246-2.542c0-0.82-0.082-1.694-0.246-2.625c-0.383-0.055-0.726-0.082-1.025-0.082h-0.862   c-3.227,0-5.823,0.696-7.791,2.092c-1.969,1.394-3.5,3.103-4.593,5.126c0-1.093-0.029-2.311-0.082-3.65   c-0.056-1.339-0.138-2.502-0.246-3.485c-0.439-0.055-0.849-0.096-1.231-0.123c-0.383-0.027-0.793-0.041-1.23-0.041   c-0.383,0-0.779,0.014-1.189,0.041s-0.835,0.068-1.272,0.123V170.807z M245.889,145.709c-0.93-0.109-2.105-0.231-3.526-0.369   c-1.423-0.136-3.117-0.205-5.086-0.205c-2.515,0-4.826,0.302-6.93,0.902c-2.106,0.602-3.91,1.49-5.413,2.666   c-1.505,1.176-2.68,2.624-3.527,4.347c-0.849,1.723-1.272,3.679-1.272,5.864c0,4.539,1.463,7.82,4.388,9.842   c2.925,2.024,6.931,3.035,12.016,3.035c2.461,0,5.057-0.192,7.792-0.574c2.733-0.383,5.057-0.765,6.972-1.148v-27.641   c0-4.975-1.286-8.625-3.855-10.948c-2.571-2.324-6.508-3.486-11.811-3.486c-2.188,0-4.32,0.151-6.397,0.451   c-2.079,0.301-3.828,0.67-5.25,1.106c0,0.82,0.095,1.696,0.287,2.625c0.191,0.931,0.423,1.641,0.698,2.132   c1.421-0.437,3.034-0.806,4.839-1.106c1.804-0.3,3.799-0.451,5.987-0.451c3.335,0,5.85,0.834,7.546,2.502   c1.694,1.668,2.542,4.306,2.542,7.914V145.709z M245.889,166.132c-1.422,0.274-2.87,0.492-4.347,0.656   c-1.476,0.164-3.063,0.246-4.757,0.246c-1.312,0-2.624-0.095-3.937-0.287c-1.312-0.191-2.515-0.574-3.608-1.149   c-1.095-0.573-1.983-1.406-2.666-2.501c-0.684-1.093-1.025-2.543-1.025-4.347c0-2.843,1.12-5.03,3.362-6.562   c2.242-1.53,5.414-2.297,9.515-2.297c1.257,0,2.583,0.069,3.978,0.205c1.394,0.138,2.555,0.261,3.485,0.369V166.132z    M179.946,146.447c0-2.625,0.423-4.798,1.272-6.521c0.847-1.723,1.913-3.116,3.198-4.183c1.284-1.067,2.693-1.818,4.224-2.256   c1.53-0.438,2.953-0.656,4.265-0.656c4.21,0,7.259,1.423,9.145,4.265c1.887,2.845,2.83,6.781,2.83,11.812   c0,3.171-0.41,5.892-1.23,8.16c-0.821,2.27-1.942,4.142-3.363,5.619c-1.423,1.476-3.09,2.556-5.003,3.239   c-1.915,0.685-3.937,1.025-6.07,1.025c-2.242,0-4.033-0.123-5.372-0.369c-1.34-0.246-2.639-0.615-3.896-1.108V146.447z    M174.534,190.163c0.328,0.054,0.779,0.095,1.353,0.123c0.574,0.027,1.026,0.041,1.354,0.041c0.273,0,0.71-0.014,1.312-0.041   c0.601-0.028,1.066-0.069,1.394-0.123v-19.684c1.257,0.437,2.652,0.765,4.183,0.983c1.53,0.218,2.953,0.328,4.265,0.328   c3.554,0,6.712-0.533,9.473-1.6c2.761-1.066,5.085-2.597,6.972-4.594c1.886-1.994,3.322-4.429,4.306-7.299   c0.984-2.871,1.476-6.11,1.476-9.719c0-3.609-0.424-6.698-1.271-9.269c-0.848-2.569-2.024-4.702-3.527-6.397   c-1.504-1.694-3.322-2.939-5.454-3.732c-2.133-0.792-4.484-1.188-7.054-1.188c-3.445,0-6.247,0.684-8.407,2.05   c-2.16,1.368-3.814,2.926-4.962,4.675l-0.492-5.74c-0.328-0.055-0.738-0.096-1.23-0.123c-0.492-0.027-0.902-0.041-1.23-0.041   c-0.329,0-0.739,0.014-1.231,0.041c-0.492,0.027-0.902,0.068-1.23,0.123V190.163z"/>
	<path clip-path="url(#SVGID_2_)" fill="#FFFFFF" d="M142.255,140.584c0,27.165-22.024,49.19-49.201,49.19   c-27.161,0-49.192-22.025-49.192-49.19c0-27.166,22.031-49.191,49.192-49.191C120.231,91.393,142.255,113.418,142.255,140.584"/>
	<path clip-path="url(#SVGID_2_)" d="M93.055,188.018c-26.191,0-47.436-21.238-47.436-47.434c0-26.197,21.245-47.436,47.436-47.436   c26.207,0,47.443,21.238,47.443,47.436C140.498,166.779,119.262,188.018,93.055,188.018 M93.055,87.716   c-29.196,0-52.872,23.66-52.872,52.868c0,29.191,23.676,52.867,52.872,52.867c29.202,0,52.88-23.676,52.88-52.867   C145.935,111.376,122.257,87.716,93.055,87.716"/>
	<path clip-path="url(#SVGID_2_)" d="M85.48,146.631c-2.765,1.941-5.064,3.75-6.963,5.481v-36.759   c3.847,0.812,7.918,2.477,10.724,5.779C96.142,129.283,93.803,140.792,85.48,146.631 M115.661,114.271   c-11.44-6.415-25.773-6.47-37.144-3.558v-4.921h-4.934v6.432c-2.12,0.767-4.081,1.634-5.825,2.576c0,0,2.454-0.303,5.825-0.098   v43.028c-2.454,3.776-3.045,7.454-2.465,11.694c0.653,4.74,4.232,7.907,7.051,10.247c-1.661-4.781-1.787-9.133-1.299-11.766   c0.931-4.915,3.816-8.45,16.261-11.146c12.913-2.781,28.215-4.071,33.27-16.607C128.705,134.424,130.134,122.394,115.661,114.271"/>
	<path clip-path="url(#SVGID_2_)" d="M53.447,100.974c-10.14,10.136-16.409,24.136-16.41,39.61   c0.001,15.464,6.27,29.464,16.41,39.602c10.139,10.139,24.14,16.408,39.608,16.408c15.471,0,29.474-6.27,39.614-16.408   c10.14-10.138,16.41-24.138,16.41-39.602c0-15.475-6.27-29.475-16.41-39.61s-24.143-16.401-39.614-16.401   C77.586,84.572,63.586,90.838,53.447,100.974 M36,140.584c0.001-31.519,25.55-57.048,57.055-57.048   c31.511,0,57.059,25.529,57.061,57.048c-0.002,31.5-25.55,57.046-57.061,57.046C61.55,197.63,36.001,172.084,36,140.584"/>
</g>
</svg>